<svg xmlns="http://www.w3.org/2000/svg" viewBox="0 0 764 764"><defs><linearGradient id="right" x1="454.63" x2="1114.01" y1="1052.05" y2="392.66" gradientTransform="translate(-338.54 -337.972)" gradientUnits="userSpaceOnUse"><stop offset="0.55" stop-color="#181047"/><stop offset="0.62" stop-color="#16144e"/><stop offset="0.72" stop-color="#0f1d61"/><stop offset="0.8" stop-color="#092773"/></linearGradient><linearGradient id="middle" x1="345.78" x2="1005.84" y1="719.8" y2="719.8" gradientTransform="translate(-338.54 -337.972)" gradientUnits="userSpaceOnUse"><stop offset="0" stop-color="#1668f3"/><stop offset="0.42" stop-color="#1942a2"/><stop offset="0.82" stop-color="#1c215b"/><stop offset="1" stop-color="#1d143f"/></linearGradient><linearGradient id="left" x1="338.49" x2="833.03" y1="798.68" y2="798.68" gradientTransform="translate(-338.54 -337.972)" gradientUnits="userSpaceOnUse"><stop offset="0" stop-color="#45b7f4"/><stop offset="1" stop-color="#1668f3"/></linearGradient></defs><path fill="url(#right)" d="m 762.97,422.4879 a 209,209 0 0 1 -209.06,209.06 l -59.42,0.31 -240.24,1.17 -81.52,0.41 c -1.48,0 -3,0 -4.47,-0.06 -1.47,-0.06 -2.87,-0.1 -4.3,-0.15 l -4.14,-0.25 A 172.47,172.47 0 0 1 0.46,473.6079 c -0.09,-1.39 -0.17,-2.75 -0.25,-4.14 -0.08,-1.39 -0.11,-2.85 -0.15,-4.3 -0.04,-1.45 -0.06,-3 -0.06,-4.47 q 0,-1.9 0.06,-3.81 c 0,-1.28 0.06,-2.53 0.12,-3.78 0,-0.15 0,-0.33 0,-0.48 a 172.31,172.31 0 0 1 153.26,-163 c 0,-0.21 0.06,-0.4 0.08,-0.62 A 180.14,180.14 0 0 1 451,175.20791 c 0.08,0.05 0.15,0.13 0.23,0.19 a 181.17,181.17 0 0 1 38.71,48 c 0.38,-0.12 0.77,-0.26 1.16,-0.37 a 208.2,208.2 0 0 1 62.81,-9.62 c 115.45,0.02 209.06,93.61999 209.06,209.07999 z"/><path fill="url(#middle)" d="m 667.3,598.1579 a 208,208 0 0 1 -113.39,33.39 l -59.42,0.31 -240.24,1.17 c -125.18,-6.89 -227.23,-100.56 -247,-221.89 a 0.9,0.9 0 0 1 0,-0.25 172.9,172.9 0 0 1 146.21,-121.86 A 180.14,180.14 0 0 1 451,175.20791 c 0.08,0.05 0.15,0.13 0.23,0.19 a 267.68,267.68 0 0 1 27.36,30.15 q 6.61,8.47 12.51,17.5 a 264,264 0 0 1 43.21,145.15999 265,265 0 0 0 131.39,229 c 0.54,0.33 1.06,0.64 1.6,0.95 z"/><path fill="url(#left)" d="m 494.46,631.8579 -240.21,1.17 -81.52,0.41 c -1.48,0 -3,0 -4.47,-0.06 -1.47,-0.06 -2.87,-0.1 -4.3,-0.15 l -4.14,-0.25 A 172.84,172.84 0 0 1 0.46,473.6079 c -0.09,-1.39 -0.17,-2.75 -0.25,-4.14 -0.08,-1.39 -0.11,-2.85 -0.15,-4.3 -0.04,-1.45 -0.06,-3 -0.06,-4.47 q 0,-1.9 0.06,-3.81 c 0,-1.28 0.06,-2.53 0.12,-3.78 0,-0.15 0,-0.33 0,-0.48 a 172.59,172.59 0 0 1 153.28,-163.6 177.27,177.27 0 0 1 19.25,-1.06 172.71,172.71 0 0 1 172.75,172.73 172.82,172.82 0 0 0 149,171.16 z"/></svg>
