<?xml version="1.0" standalone="no"?>
<!DOCTYPE svg PUBLIC "-//W3C//DTD SVG 20010904//EN"
 "http://www.w3.org/TR/2001/REC-SVG-20010904/DTD/svg10.dtd">
<svg version="1.0" xmlns="http://www.w3.org/2000/svg"
 width="764.000000pt" height="764.000000pt" viewBox="0 0 764.000000 764.000000"
 preserveAspectRatio="xMidYMid meet">
<metadata>
Created by potrace 1.14, written by Peter Selinger 2001-2017
</metadata>
<g transform="translate(0.000000,764.000000) scale(0.100000,-0.100000)"
fill="#000000" stroke="none">
<path d="M3100 6323 c-578 -75 -1083 -422 -1359 -935 -31 -57 -62 -119 -70
-138 -44 -108 -101 -299 -117 -392 -17 -101 -20 -108 -42 -108 -13 0 -69 -9
-125 -21 -529 -108 -974 -455 -1213 -944 -79 -163 -123 -307 -159 -530 -11
-65 -13 -334 -3 -415 33 -280 130 -540 286 -774 61 -92 199 -255 253 -301 174
-147 262 -207 414 -283 176 -88 390 -150 580 -169 94 -9 575 -9 2529 0 1390 7
1620 10 1716 22 247 30 512 113 725 225 77 40 260 157 287 183 7 6 31 25 53
42 21 16 46 36 55 45 9 8 38 36 66 61 228 212 412 487 527 789 41 107 95 309
104 385 3 28 7 53 8 56 2 3 7 46 12 95 13 155 7 408 -12 499 -3 11 -7 38 -10
60 -33 238 -170 581 -318 800 -125 184 -296 367 -466 497 -20 15 -41 32 -46
36 -43 35 -230 148 -305 184 -315 152 -614 218 -955 213 -188 -3 -309 -18
-455 -55 -25 -6 -67 -17 -95 -23 l-50 -12 -34 50 c-38 56 -140 194 -156 211
-5 6 -39 44 -75 84 -253 282 -667 503 -1040 556 -19 3 -48 8 -65 11 -59 12
-342 9 -445 -4z"/>
</g>
</svg>
